<svg width="21" height="17" viewBox="0 0 21 17" fill="none" xmlns="http://www.w3.org/2000/svg">
<path d="M1 12.5V7.00373C1 5.55387 2.03687 4.31148 3.46335 4.05212L5.38106 3.70344C6.02901 3.58563 6.5 3.02129 6.5 2.36271C6.5 1.61011 7.11011 1 7.86271 1H13.1262C13.8849 1 14.5 1.61506 14.5 2.37377C14.5 3.02863 14.9622 3.59244 15.6044 3.72087L17.0883 4.01767C18.4906 4.29812 19.5 5.52937 19.5 6.95941V12.5C19.5 14.1569 18.1569 15.5 16.5 15.5H4C2.34315 15.5 1 14.1569 1 12.5Z" stroke="#B4B4B4" stroke-width="2"/>
<circle cx="10.5" cy="8.5" r="3.5" stroke="#B4B4B4" stroke-width="2"/>
</svg>
