<svg width="21" height="22" viewBox="0 0 21 22" fill="none" xmlns="http://www.w3.org/2000/svg">
<path d="M1 8.50531V20C1 20.5523 1.44772 21 2 21H6.5C7.05228 21 7.5 20.5523 7.5 20V15.3333C7.5 15.117 7.56893 14.9042 7.70619 14.737C9.88948 12.0765 11.9305 13.5057 12.8399 14.7625C12.9498 14.9143 13 15.0994 13 15.2868V20C13 20.5523 13.4477 21 14 21H19C19.5523 21 20 20.5523 20 20V8.50531C20 8.18757 19.849 7.88874 19.5932 7.70025L11.0932 1.43709C10.7404 1.17717 10.2596 1.17717 9.9068 1.43709L1.4068 7.70025C1.151 7.88874 1 8.18757 1 8.50531Z" stroke="#B4B4B4" stroke-width="2"/>
</svg>
