<svg width="23" height="22" viewBox="0 0 23 22" fill="none" xmlns="http://www.w3.org/2000/svg">
<path d="M17.5462 20.5H2C1.44772 20.5 1 20.0523 1 19.5V4.91421C1 4.649 1.10536 4.39464 1.29289 4.20711L4.20711 1.29289C4.39464 1.10536 4.649 1 4.91421 1H17.5109C17.8195 1 18.1108 1.14247 18.3003 1.38606L21.2894 5.22917C21.4259 5.4047 21.5 5.62073 21.5 5.84311V16.1243C21.5 16.3665 21.4121 16.6005 21.2526 16.7828L18.2988 20.1585C18.1089 20.3755 17.8346 20.5 17.5462 20.5Z" stroke="#B4B4B4" stroke-width="2"/>
<circle cx="7.5" cy="10.5" r="1.5" fill="#C4C4C4"/>
<circle cx="15.5" cy="10.5" r="1.5" fill="#C4C4C4"/>
</svg>
