<svg width="19" height="19" viewBox="0 0 19 19" fill="none" xmlns="http://www.w3.org/2000/svg">
<path d="M15.0664 12.3203C13.9666 12.3203 12.9894 12.8548 12.3805 13.6774L7.13806 10.9983C7.22601 10.6995 7.27344 10.3835 7.27344 10.0566C7.27344 9.61389 7.18664 9.1911 7.02948 8.80409L12.5239 5.50291C13.1369 6.22246 14.0492 6.67969 15.0664 6.67969C16.908 6.67969 18.4062 5.18143 18.4062 3.33984C18.4062 1.49825 16.908 0 15.0664 0C13.2248 0 11.7266 1.49825 11.7266 3.33984C11.7266 3.76549 11.8068 4.17269 11.9526 4.54738L6.44441 7.8568C5.83181 7.15847 4.93336 6.7168 3.93359 6.7168C2.092 6.7168 0.59375 8.21505 0.59375 10.0566C0.59375 11.8982 2.092 13.3965 3.93359 13.3965C5.0514 13.3965 6.04259 12.8444 6.64915 11.9987L11.8764 14.67C11.779 14.983 11.7266 15.3156 11.7266 15.6602C11.7266 17.5017 13.2248 19 15.0664 19C16.908 19 18.4062 17.5017 18.4062 15.6602C18.4062 13.8186 16.908 12.3203 15.0664 12.3203ZM15.0664 1.11328C16.2941 1.11328 17.293 2.11212 17.293 3.33984C17.293 4.56757 16.2941 5.56641 15.0664 5.56641C13.8387 5.56641 12.8398 4.56757 12.8398 3.33984C12.8398 2.11212 13.8387 1.11328 15.0664 1.11328ZM3.93359 12.2832C2.70587 12.2832 1.70703 11.2844 1.70703 10.0566C1.70703 8.82891 2.70587 7.83008 3.93359 7.83008C5.16132 7.83008 6.16016 8.82891 6.16016 10.0566C6.16016 11.2844 5.16132 12.2832 3.93359 12.2832ZM15.0664 17.8867C13.8387 17.8867 12.8398 16.8879 12.8398 15.6602C12.8398 14.4324 13.8387 13.4336 15.0664 13.4336C16.2941 13.4336 17.293 14.4324 17.293 15.6602C17.293 16.8879 16.2941 17.8867 15.0664 17.8867Z" fill="#B4B4B4"/>
</svg>
